PathFileType	4	(X/Y/Z)	C:\Users\Basilio\Documents\Thesis Gigler\squatting_fais\c3dfiles\058\SJ_pre3\markers_experimental.trc
DataRate	CameraRate	NumFrames	NumMarkers	Units	OrigDataRate	OrigDataStartFrame	OrigNumFrames
200.000000	200.000000	4	61	mm	200.000000	0	1400
Frame#	Time	FHD			LBHD			RBHD			C7			T10			CLAV			LSHO			LUUPA			LMUPA			LDUPA			LLEP			LMEP			LRAD			LUL			LRFIN			RSHO			RUPA1			RMUPA			RDUPA			RLEP			RMEP			RRAD			RUL			RUFIN			LASI			RASI			USACR			LSACR			RSACR			LTHI1			LTHI2			LTHI3			LTHI4			LLFC			LMFC			LTIB1			LTIB2			LTIB3			LTIB4			LLMAL			LMMAL			LHEE			LMT1			LMT2			LMT5			RTHI			RTHI2			RTHI3			RTHI4			RLFC			RMFC			RTIB1			RTIB2			RTIB3			RTIB4			RLMAL			RMMAL			RHEE			RMT1			RMT2			RMT5			
		X1	Y1	Z1	X2	Y2	Z2	X3	Y3	Z3	X4	Y4	Z4	X5	Y5	Z5	X6	Y6	Z6	X7	Y7	Z7	X8	Y8	Z8	X9	Y9	Z9	X10	Y10	Z10	X11	Y11	Z11	X12	Y12	Z12	X13	Y13	Z13	X14	Y14	Z14	X15	Y15	Z15	X16	Y16	Z16	X17	Y17	Z17	X18	Y18	Z18	X19	Y19	Z19	X20	Y20	Z20	X21	Y21	Z21	X22	Y22	Z22	X23	Y23	Z23	X24	Y24	Z24	X25	Y25	Z25	X26	Y26	Z26	X27	Y27	Z27	X28	Y28	Z28	X29	Y29	Z29	X30	Y30	Z30	X31	Y31	Z31	X32	Y32	Z32	X33	Y33	Z33	X34	Y34	Z34	X35	Y35	Z35	X36	Y36	Z36	X37	Y37	Z37	X38	Y38	Z38	X39	Y39	Z39	X40	Y40	Z40	X41	Y41	Z41	X42	Y42	Z42	X43	Y43	Z43	X44	Y44	Z44	X45	Y45	Z45	X46	Y46	Z46	X47	Y47	Z47	X48	Y48	Z48	X49	Y49	Z49	X50	Y50	Z50	X51	Y51	Z51	X52	Y52	Z52	X53	Y53	Z53	X54	Y54	Z54	X55	Y55	Z55	X56	Y56	Z56	X57	Y57	Z57	X58	Y58	Z58	X59	Y59	Z59	X60	Y60	Z60	X61	Y61	Z61	

1	0	15.80609798431397	1612.84814453125	-814.2359008789065	-109.6476669311524	1721.791137695313	-884.9245605468752	26.12617492675782	1608.022094726563	-956.3070068359377	-258.6850891113282	1587.845947265625	-902.8601074218752	-365.6545715332032	1273.021118164063	-892.9678955078127	-131.4900665283203	1474.57666015625	-884.4138183593752	-120.6873779296875	1538.808349609375	-1054.236083984375	-274.7791137695313	1465.75	-1220.62109375	-255.9534759521485	1419.15185546875	-1228.50341796875	-308.8221435546876	1416.43603515625	-1258.345947265625	-357.4059448242188	1351.7568359375	-1291.9013671875	-412.9082031250001	1360.542602539063	-1241.489868164063	-358.6815490722657	1158.95849609375	-1094.906127929688	-285.4645690917969	1161.137084960938	-1085.164306640625	-339.0073547363282	1103.185302734375	-1150.895874023438	-156.2047882080078	1553.458862304688	-716.7385253906251	-317.9132080078126	1463.63818359375	-567.2943725585939	-296.4813842773438	1418.00341796875	-565.4536132812501	-345.7703857421876	1407.238403320313	-533.5355224609376	-388.7924804687501	1356.707397460938	-507.1007690429689	-448.5447692871095	1344.95703125	-573.4193115234376	-319.7687988281251	1158.854858398438	-675.6796875000001	-304.3215332031251	1112.293701171875	-612.0296630859376	-251.9922790527344	1126.285522460938	-702.0390014648439	-224.8071289062501	1038.126098632813	-1014.908935546875	-225.5874176025391	1029.307983398438	-780.4608154296877	-398.3158569335939	1152.161376953125	-882.1075439453127	-411.5777587890626	1122.630004882813	-910.1224365234377	-409.4989624023439	1121.302368164063	-853.0078735351565	-277.2510070800782	776.9551391601565	-1123.2783203125	-246.5881500244141	697.5454711914064	-1126.485107421875	-202.9472045898438	695.6276245117189	-1099.504760742188	-276.1879882812501	644.3712768554689	-1122.281372070313	-271.2615661621094	546.8696289062501	-1122.408203125	-249.2467346191407	525.1126708984376	-998.4822998046877	-225.2015838623047	406.6084289550782	-1104.2314453125	-282.1231689453126	382.6847534179688	-1162.378051757813	-245.0060577392579	368.1881408691407	-1140.927490234375	-254.7522430419922	283.7696228027344	-1125.011108398438	-336.2853698730469	95.03589630126955	-1158.286254882813	-308.6582641601563	102.1656341552735	-1069.42236328125	-398.310760498047	52.88513946533205	-1107.077026367188	-170.8403625488282	63.66257095336915	-1103.614990234375	-172.9656372070313	62.79721069335939	-1150.453125	-222.1402740478516	38.43392181396485	-1202.19873046875	-338.0789184570313	849.1990356445315	-693.8891601562501	-299.0668945312501	796.3937988281252	-680.0344238281251	-265.3196105957032	797.4788818359377	-680.4486694335939	-321.1284790039063	716.0067138671876	-691.2342529296876	-305.8620910644532	540.2628784179689	-680.6193847656251	-271.7329101562501	507.1780090332032	-808.489929199219	-257.5343627929688	324.1497192382813	-733.2937011718751	-294.1754455566407	258.2687988281251	-652.7337036132814	-261.4028625488282	246.5007476806641	-685.5953979492189	-272.1775817871094	197.0581512451172	-712.2144165039064	-327.5247192382813	92.72033691406251	-653.8622436523439	-302.0812988281251	105.2408981323242	-744.9192504882814	-391.6147766113282	48.30790328979494	-708.3565063476564	-171.3801574707032	58.7505226135254	-718.0525512695314	-168.0495910644532	61.62202835083009	-667.0389404296876	-209.5982208251954	24.5466651916504	-611.7941894531251	
2	0.005	16.51058387756348	1613.333740234375	-815.251892089844	-109.504638671875	1720.90673828125	-886.4768676757815	26.2029209136963	1607.692993164063	-957.6215820312502	-258.4323120117188	1587.623046875	-904.5626220703127	-365.6116638183594	1272.862060546875	-894.6878051757815	-131.2361145019532	1474.379150390625	-885.855163574219	-120.5112609863282	1538.423828125	-1055.452392578125	-274.2114868164063	1465.244018554688	-1221.923828125	-255.4330444335938	1418.575317382813	-1229.987670898438	-308.1821594238282	1415.791381835938	-1259.837158203125	-356.5748596191407	1350.979614257813	-1293.33251953125	-412.4205322265626	1359.821533203125	-1242.853393554688	-358.3451232910157	1158.494995117188	-1096.113525390625	-284.9457702636719	1160.788208007813	-1086.347534179688	-337.6770324707032	1102.982421875	-1152.075927734375	-156.1173706054688	1553.413208007813	-718.2309570312501	-318.3160705566407	1463.836547851563	-568.9730224609376	-296.8910522460938	1418.20849609375	-567.0576171875001	-346.3121032714844	1407.563598632813	-535.2869262695314	-389.1690368652345	1356.925903320313	-508.7206115722657	-449.0464782714845	1345.197875976563	-575.1537475585939	-320.2236938476563	1158.994995117188	-677.0671997070314	-304.7849731445313	1112.367553710938	-613.2019653320314	-252.3513793945313	1126.27392578125	-703.1739501953126	-224.7166137695313	1037.804565429688	-1015.901550292969	-225.6981201171876	1029.2373046875	-781.4371337890627	-398.4126281738282	1152.032348632813	-883.3382568359377	-411.6868286132814	1122.566162109375	-911.5239868164065	-409.5617675781251	1121.295532226563	-854.2683105468752	-278.1718750000001	776.5786132812502	-1123.923583984375	-247.7294006347657	697.1875000000001	-1127.316284179688	-204.683822631836	694.9481201171876	-1100.447509765625	-277.4942626953126	644.1574707031251	-1123.215576171875	-272.6938171386719	546.5009765625001	-1123.06201171875	-250.1016540527344	524.6802368164064	-999.2515869140627	-226.3975067138672	406.4561462402345	-1105.029907226563	-283.7174987792969	382.2851867675782	-1162.607421875	-246.4318084716797	367.8248901367188	-1141.517700195313	-255.4275817871094	283.6551513671876	-1125.599487304688	-336.9898376464844	94.54635620117189	-1157.970458984375	-308.7668457031251	101.6316833496094	-1069.205810546875	-399.4078674316407	53.00932693481447	-1106.469360351563	-170.9539794921875	63.62833404541017	-1103.699829101563	-173.045166015625	62.68745422363283	-1150.5849609375	-222.0736236572266	38.20472717285157	-1202.459350585938	-338.2107849121094	849.3303222656252	-694.7193603515626	-299.2438964843751	796.4176025390627	-680.8426513671876	-265.4683532714844	797.5178833007815	-681.2575683593751	-321.3083190917969	716.0505981445314	-691.9562988281251	-306.2719726562501	540.2464599609376	-681.2468872070314	-271.9814147949219	507.0598449707032	-808.9455566406252	-257.6142883300782	324.2529296875001	-733.5912475585939	-294.5171813964844	258.4541320800782	-652.9650268554689	-261.5480957031251	246.5584716796876	-685.8051147460939	-272.2726135253907	197.1063079833985	-712.3542480468751	-327.5313110351563	92.74855804443361	-653.9405517578126	-302.0650634765626	105.2347564697266	-745.0038452148439	-391.6097106933595	48.3283042907715	-708.3787841796876	-171.3874664306641	58.7958335876465	-718.0791015625001	-168.0771636962891	61.62372207641603	-667.0651855468751	-209.600326538086	24.55921173095704	-611.7973022460939	
3	0.01	16.41477394104004	1612.593994140625	-817.0698852539065	-109.3559112548828	1720.74462890625	-888.0704345703127	26.50323104858399	1607.36669921875	-959.1315917968752	-258.2022094726563	1587.485717773438	-906.2818603515627	-365.7186584472657	1272.845825195313	-896.249694824219	-131.171859741211	1474.111206054688	-887.2122192382815	-120.0354766845703	1537.929931640625	-1057.060668945313	-273.7236328125001	1464.449584960938	-1223.634643554688	-254.9042968750001	1417.943481445313	-1231.372314453125	-307.6126708984376	1415.189086914063	-1261.321899414063	-355.8714294433594	1350.383544921875	-1294.809814453125	-411.7966918945314	1359.120849609375	-1244.333984375	-358.0712280273438	1158.053100585938	-1097.389282226563	-284.6718444824219	1160.34619140625	-1087.612548828125	-337.9961853027344	1101.986938476563	-1153.074584960938	-156.2884216308594	1553.412475585938	-719.7461547851564	-318.7473754882813	1464.02490234375	-570.7539062500001	-297.1348571777344	1418.60546875	-568.5891113281251	-346.6292419433594	1407.930786132813	-537.0200195312501	-389.5664062500001	1357.25634765625	-510.455780029297	-449.2215576171876	1345.4560546875	-576.8615112304689	-320.3647155761719	1159.158325195313	-678.3239135742189	-305.1388549804688	1112.538696289063	-614.5136718750001	-252.6081237792969	1126.3173828125	-704.3261718750001	-224.8780212402344	1037.4921875	-1016.798156738281	-225.7621154785157	1029.095092773438	-782.5088500976565	-398.4142456054689	1151.931396484375	-885.0229492187502	-411.6824951171876	1122.461791992188	-912.9112548828127	-409.5747680664064	1121.143676757813	-855.7957763671877	-279.2973022460938	776.3220825195315	-1124.772094726563	-249.0287780761719	696.8265380859376	-1128.47509765625	-205.8912353515626	694.1997680664064	-1101.455810546875	-279.0170593261719	643.7843627929689	-1123.799072265625	-274.1566467285157	546.2230834960939	-1123.649780273438	-250.711166381836	524.4101562500001	-999.9371337890627	-227.9252014160157	406.063446044922	-1105.721313476563	-285.1721191406251	381.9302062988282	-1162.804931640625	-247.6784210205079	367.5680236816407	-1141.933349609375	-256.2940368652344	283.2879943847657	-1126.049682617188	-337.4714660644532	94.11018371582033	-1157.636474609375	-308.8197631835938	101.1810760498047	-1068.93115234375	-399.4452209472657	52.31719970703126	-1106.158935546875	-170.9942626953125	63.56101226806642	-1103.846801757813	-173.1386108398438	62.5764503479004	-1150.693115234375	-222.2344970703126	38.0812110900879	-1202.589477539063	-338.1179199218751	849.4294433593752	-695.6553344726564	-299.3764038085938	796.4460449218752	-681.5683593750001	-265.6290283203126	797.580261230469	-682.0870361328126	-321.4304504394532	716.1622314453126	-692.7272949218751	-306.6833496093751	540.3175659179689	-682.0494995117189	-272.3056335449219	506.9403686523439	-809.6070556640627	-257.9632568359376	324.2365722656251	-733.9163208007814	-294.7203979492188	258.5839233398438	-653.2148437500001	-261.6812744140626	246.6477508544922	-686.0705566406251	-272.3536682128907	197.1981201171876	-712.5035400390626	-327.4674682617188	92.8271942138672	-654.0932617187501	-302.0666503906251	105.2568054199219	-745.1087646484376	-391.6450195312501	48.34539794921876	-708.4301757812501	-171.3666229248047	58.76889801025392	-718.0816650390626	-168.0320739746094	61.64377212524415	-667.0888671875001	-209.599349975586	24.60066604614259	-611.8099365234376	
4	0.015	16.69425773620606	1612.382690429688	-818.5380859375002	-109.0584716796875	1721.330078125	-889.642517089844	26.8961296081543	1607.158203125	-960.569030761719	-258.0276184082032	1587.352416992188	-908.0971679687502	-365.6107788085938	1272.774291992188	-897.6832275390627	-131.1317596435547	1473.9931640625	-888.7122802734377	-119.6926956176758	1537.605712890625	-1058.55517578125	-273.0330200195313	1463.854858398438	-1225.128051757813	-254.3080139160157	1417.38623046875	-1232.85595703125	-307.1663208007813	1414.504760742188	-1262.869384765625	-355.4991760253907	1349.6484375	-1296.281860351563	-411.2072753906251	1358.514526367188	-1245.95263671875	-357.7262573242188	1157.540771484375	-1098.693603515625	-284.0484619140626	1159.96484375	-1088.733154296875	-337.4768066406251	1101.501953125	-1154.232543945313	-156.172592163086	1553.359741210938	-721.3772583007814	-319.1414489746094	1464.36865234375	-572.5977783203126	-297.4944458007813	1418.85498046875	-570.2754516601564	-347.0200500488282	1408.329956054688	-538.7875976562501	-390.0404663085939	1357.665405273438	-512.0271606445314	-449.7579650878907	1345.746826171875	-578.6953735351564	-320.9848937988282	1159.123779296875	-679.7998046875001	-305.7483520507813	1112.672973632813	-615.7387695312501	-252.8538970947266	1126.331909179688	-705.5570678710939	-224.8114166259766	1037.167358398438	-1017.787231445313	-225.4040679931641	1028.944091796875	-783.7154541015627	-398.4568786621095	1151.919921875	-886.3183593750002	-411.577850341797	1122.361572265625	-914.2371826171877	-409.5480957031251	1121.111450195313	-857.1521606445315	-280.4256591796876	776.0876464843752	-1125.574951171875	-249.9967041015626	696.5387573242189	-1129.330444335938	-206.5484313964844	693.9601440429689	-1102.663208007813	-280.0083312988282	643.6207275390626	-1124.557495117188	-275.3716735839844	545.9867553710939	-1124.0380859375	-251.2321319580079	524.2948608398439	-1000.421875	-228.5542602539063	405.793914794922	-1106.364990234375	-287.6484680175782	381.3131408691407	-1162.3662109375	-248.8098907470704	367.3589477539063	-1142.390380859375	-257.5738830566407	282.8291015625001	-1126.352416992188	-337.7892456054688	93.66780090332033	-1157.357177734375	-308.9048461914063	100.7026901245117	-1068.671997070313	-399.4506225585939	51.90796279907228	-1105.9873046875	-170.9376525878907	63.46773147583009	-1103.91015625	-172.8070373535157	61.40993499755861	-1151.01220703125	-222.3021850585938	37.95608520507813	-1202.701538085938	-338.1411132812501	849.516296386719	-696.5398559570314	-299.4622802734376	796.5972290039065	-682.4004516601564	-265.8747253417969	797.5700683593752	-682.9845581054689	-321.7150268554688	716.2051391601564	-693.5880737304689	-307.1568298339844	540.4176025390626	-682.6024780273439	-272.6200256347657	507.0282287597657	-810.3740234375002	-258.1201171875001	324.2813720703126	-734.3114624023439	-294.9815673828126	258.6641845703126	-653.4984741210939	-262.0130920410157	246.8502502441407	-686.2930297851564	-272.4685974121094	197.225082397461	-712.6643066406251	-327.4700622558594	92.85476684570314	-654.1343994140626	-302.0300292968751	105.2381439208985	-745.1923828125001	-391.6442260742189	48.37585449218751	-708.4954223632814	-171.3652801513672	58.76459884643556	-718.1261596679689	-168.0236968994141	61.64139556884767	-667.1638183593751	-209.6148986816407	24.58456230163575	-611.8736572265626	
